# xmcd
#
# Track frame offsets: 
#        150
#        16374
#        30743
#        45266
#        57919
#        71329
#        86079
#        101370
#        118518
#        130750
#        149021
#        165324
#        184167
#        203562
#        219267
#
# Disc length: 3052 seconds
#
# Revision: 0
# Processed by: cddbd v1.5.2PL0 Copyright (c) Steve Scherf et al.
# Submitted via: ExactAudioCopyFreeDBPlugin 1.0
#
DISCID=c40bea0f
DTITLE=Kristin Chenoweth - Some Lessons Learned
DYEAR=2011
DGENRE=Country
TTITLE0=I Was Here
TTITLE1=I Want Somebody (Bitch About)
TTITLE2=Fathers and Daughters
TTITLE3=What Would Dolly Do
TTITLE4=God and Me
TTITLE5=Change
TTITLE6=What More Do You Want
TTITLE7=Wreck You
TTITLE8=I Didn't
TTITLE9=Borrowed Angels
TTITLE10=What If We Never
TTITLE11=Mine to Love
TTITLE12=Lessons Learned
TTITLE13=Higher Love
TTITLE14=Prayer of St. Francis
EXTD=
EXTT0=
EXTT1=
EXTT2=
EXTT3=
EXTT4=
EXTT5=
EXTT6=
EXTT7=
EXTT8=
EXTT9=
EXTT10=
EXTT11=
EXTT12=
EXTT13=
EXTT14=
PLAYORDER=
